<svg t="1697284111302" class="icon" viewBox="0 0 1024 1024" version="1.1" xmlns="http://www.w3.org/2000/svg" p-id="5711" data-spm-anchor-id="a313x.search_index.0.i8.72a33a81HRF7jY" width="32" height="32"><path d="M512 76.8c-236.8 0-435.2 192-435.2 435.2s192 435.2 435.2 435.2 435.2-192 435.2-435.2S748.8 76.8 512 76.8z m249.6 320L480 704c-12.8 12.8-38.4 12.8-51.2 0L288 556.8c-12.8-12.8-12.8-38.4 0-51.2 12.8-12.8 38.4-12.8 51.2 0l115.2 115.2L704 339.2c12.8-12.8 38.4-12.8 51.2 0 25.6 12.8 25.6 38.4 6.4 57.6z" fill="#2E7D32" p-id="5712" data-spm-anchor-id="a313x.search_index.0.i0.72a33a81HRF7jY" class="selected"></path><path d="M710.4 339.2l-256 281.6-115.2-115.2c-12.8-12.8-38.4-12.8-51.2 0-12.8 12.8-12.8 38.4 0 51.2l147.2 140.8c12.8 12.8 38.4 12.8 51.2 0L768 390.4c12.8-12.8 12.8-38.4 0-51.2-19.2-12.8-44.8-12.8-57.6 0z" fill="#ffffff" p-id="5713" data-spm-anchor-id="a313x.search_index.0.i1.72a33a81HRF7jY" class=""></path></svg>